<svg xmlns="http://www.w3.org/2000/svg" version="1.1" xmlns:xlink="http://www.w3.org/1999/xlink" xmlns:svgjs="http://svgjs.dev/svgjs" width="1000" height="1000"><g clip-path="url(#SvgjsClipPath1151)"><rect width="1000" height="1000" fill="#ffffff"></rect><g transform="matrix(4.356918787033809,0,0,4.356918787033809,5.684341886080802e-14,103.89072847682121)"><svg xmlns="http://www.w3.org/2000/svg" version="1.1" xmlns:xlink="http://www.w3.org/1999/xlink" xmlns:svgjs="http://svgjs.dev/svgjs" width="229.52" height="181.83"><svg version="1.1" id="Laag_1" xmlns="http://www.w3.org/2000/svg" xmlns:xlink="http://www.w3.org/1999/xlink" x="0px" y="0px" viewBox="0 0 229.52 181.83" style="enable-background:new 0 0 229.52 181.83;" xml:space="preserve">
<style type="text/css">
	.st0{fill:none;stroke:#23395B;stroke-width:5;stroke-linecap:round;stroke-miterlimit:10;}
	.st1{fill:#23395B;}
</style>
<path class="st0" d="M164.27,131.81c-21.85,25.22-60.35,27.96-85.56,6.11c-25.22-21.85-27.95-60-6.1-85.22s60-27.95,85.22-6.1"></path>
<g>
	<path class="st0" d="M165.73,130.06c-0.48,0.6-0.96,1.18-1.46,1.75"></path>
	<polygon class="st1" points="155.55,126.95 173.3,117.86 172.3,137.78 	"></polygon>
</g>
<g>
	<path class="st1" d="M87,76.34c-0.5,0.05-0.83,0.34-1,0.86c-0.17,0.52-0.21,1.17-0.12,1.96s0.27,1.41,0.54,1.88
		s0.66,0.67,1.16,0.62c0.41-0.04,0.69-0.22,0.85-0.52c0.15-0.3,0.23-0.66,0.25-1.06l2.24-0.25c-0.02,1.01-0.3,1.82-0.85,2.42
		c-0.55,0.6-1.32,0.95-2.3,1.06c-1.21,0.13-2.16-0.16-2.85-0.88c-0.7-0.71-1.12-1.73-1.26-3.04s0.05-2.39,0.57-3.24
		s1.39-1.34,2.6-1.47c0.98-0.11,1.8,0.06,2.46,0.5s1.11,1.14,1.34,2.1l-2.23,0.24c-0.1-0.37-0.26-0.68-0.47-0.91
		s-0.52-0.33-0.93-0.28L87,76.34z"></path>
	<path class="st1" d="M94.92,73.81c1.25-0.14,2.23,0.15,2.94,0.85c0.7,0.7,1.13,1.72,1.27,3.05c0.15,1.33-0.05,2.42-0.58,3.26
		c-0.53,0.84-1.43,1.33-2.68,1.46c-1.25,0.14-2.23-0.15-2.94-0.85c-0.7-0.7-1.13-1.72-1.27-3.05c-0.15-1.33,0.05-2.42,0.58-3.26
		C92.77,74.43,93.67,73.94,94.92,73.81z M95.68,80.78c0.55-0.06,0.91-0.35,1.09-0.86c0.18-0.51,0.22-1.17,0.13-1.96
		c-0.09-0.79-0.27-1.42-0.56-1.89c-0.28-0.47-0.7-0.67-1.25-0.61s-0.91,0.35-1.09,0.87c-0.18,0.52-0.22,1.17-0.13,1.97
		c0.09,0.79,0.27,1.42,0.56,1.89c0.28,0.46,0.7,0.67,1.25,0.6V80.78z"></path>
	<path class="st1" d="M100.05,81.68l1.57-8.44l2.93-0.32l3.36,7.9l0.02,0.17l-2.25,0.25l-0.54-1.4l-2.61,0.29l-0.21,1.48l-2.25,0.25
		l-0.02-0.17V81.68z M104.57,78.23l-1.17-3.1l-0.17,0.02l-0.48,3.28L104.57,78.23z"></path>
	<path class="st1" d="M111.32,73.68c-0.5,0.05-0.83,0.34-1,0.86c-0.17,0.52-0.21,1.17-0.12,1.96s0.27,1.41,0.54,1.88
		c0.28,0.47,0.66,0.67,1.16,0.62c0.41-0.04,0.7-0.22,0.85-0.52c0.15-0.3,0.23-0.66,0.25-1.06l2.24-0.25
		c-0.02,1.01-0.3,1.82-0.85,2.42s-1.32,0.95-2.3,1.06c-1.21,0.13-2.16-0.16-2.85-0.88c-0.7-0.71-1.12-1.73-1.26-3.04
		s0.05-2.39,0.57-3.24c0.53-0.85,1.39-1.34,2.6-1.47c0.98-0.11,1.8,0.06,2.46,0.5c0.67,0.44,1.11,1.14,1.34,2.1l-2.23,0.24
		c-0.11-0.37-0.26-0.68-0.47-0.91s-0.52-0.33-0.93-0.28L111.32,73.68z"></path>
	<path class="st1" d="M121.14,76.28l-2.52,0.28l0.35,3.23l-2.21,0.24l-0.91-8.33l2.21-0.24l0.35,3.23l2.52-0.28l-0.35-3.23
		l2.21-0.24l0.91,8.33l-2.21,0.24L121.14,76.28z"></path>
	<path class="st1" d="M125.36,79.08l-0.91-8.33l2.21-0.24l0.91,8.33L125.36,79.08z"></path>
	<path class="st1" d="M131.01,73.69l-0.17,0.02l0.52,4.71l-2.12,0.23l-0.91-8.34l2.35-0.26l3.19,4.46l0.17-0.02l-0.52-4.75
		l2.12-0.23l0.91,8.33l-2.33,0.26l-3.2-4.42L131.01,73.69z"></path>
	<path class="st1" d="M143.49,76.11c-0.21,0.36-0.47,0.66-0.78,0.89c-0.31,0.23-0.78,0.39-1.42,0.46c-0.71,0.08-1.35-0.04-1.9-0.35
		c-0.55-0.31-1-0.78-1.34-1.4s-0.56-1.36-0.65-2.21c-0.14-1.32,0.07-2.4,0.63-3.24c0.57-0.84,1.48-1.33,2.75-1.47
		c0.95-0.1,1.76,0.04,2.45,0.44c0.69,0.39,1.18,1.01,1.47,1.86l-2.23,0.24c-0.29-0.67-0.8-0.97-1.52-0.89
		c-1.09,0.12-1.53,1.06-1.34,2.82c0.1,0.87,0.3,1.52,0.61,1.95s0.78,0.61,1.4,0.54c0.41-0.04,0.74-0.24,0.99-0.57
		c0.25-0.34,0.34-0.79,0.27-1.35l-1.37,0.15l-0.15-1.41l3.52-0.39l0.52,4.71l-1.64,0.18l-0.11-0.98L143.49,76.11L143.49,76.11z"></path>
	<path class="st1" d="M104.52,87.56l-0.02-0.17l2.25-0.25l2.26,5.58l0.17-0.02l1.01-5.94l2.25-0.25l0.02,0.17l-1.8,8.46l-2.57,0.28
		l-3.57-7.88V87.56z"></path>
	<path class="st1" d="M113.07,94.72l1.57-8.44l2.93-0.32l3.36,7.9l0.02,0.17l-2.25,0.25l-0.54-1.4l-2.61,0.29l-0.21,1.48l-2.25,0.25
		l-0.02-0.17V94.72z M117.58,91.27l-1.17-3.1l-0.17,0.02l-0.48,3.28L117.58,91.27z"></path>
	<path class="st1" d="M123.79,88.95l-0.17,0.02l0.52,4.71l-2.12,0.23l-0.91-8.33l2.35-0.26l3.19,4.46l0.17-0.02l-0.52-4.75
		l2.12-0.23l0.91,8.33L127,93.37l-3.2-4.42H123.79z"></path>
	<path class="st1" d="M93.14,103.11c0.84-0.09,1.57,0,2.19,0.3c0.62,0.29,1.1,0.73,1.46,1.33c0.35,0.6,0.58,1.3,0.67,2.12
		s0.03,1.56-0.19,2.21s-0.6,1.2-1.14,1.61s-1.23,0.67-2.07,0.76l-3.3,0.36l-0.91-8.33L93.14,103.11L93.14,103.11z M95.22,108.52
		c0.08-0.37,0.09-0.84,0.02-1.42c-0.06-0.58-0.17-1.04-0.33-1.38s-0.39-0.59-0.7-0.74c-0.3-0.15-0.71-0.19-1.22-0.14l-0.75,0.08
		l0.54,4.95l0.75-0.08c0.51-0.06,0.9-0.19,1.16-0.4c0.27-0.21,0.44-0.5,0.52-0.87H95.22z"></path>
	<path class="st1" d="M100.73,103.99l0.18,1.61l2.87-0.31l0.18,1.69l-2.87,0.31l0.18,1.66l3.58-0.39l0.19,1.69l-5.8,0.64l-0.91-8.33
		l5.08-0.56l0.19,1.69l-2.87,0.31V103.99z"></path>
	<path class="st1" d="M107.98,105.15l-0.17,0.02l0.52,4.71l-2.12,0.23l-0.91-8.33l2.35-0.26l3.19,4.46l0.17-0.02l-0.52-4.75
		l2.12-0.23l0.91,8.33l-2.33,0.26l-3.2-4.42H107.98z"></path>
	<path class="st1" d="M119.97,100.17c0.94-0.1,1.7-0.02,2.29,0.23s0.93,0.8,1.02,1.63c0.05,0.47-0.02,0.87-0.21,1.2
		s-0.45,0.56-0.79,0.7l0.02,0.17c0.59,0.07,1.03,0.27,1.32,0.58c0.3,0.32,0.47,0.71,0.52,1.17c0.09,0.87-0.13,1.49-0.67,1.88
		s-1.29,0.64-2.25,0.74l-3.5,0.38l-0.91-8.33L119.97,100.17L119.97,100.17z M121.07,102.47c-0.04-0.37-0.18-0.6-0.42-0.71
		s-0.57-0.14-0.98-0.09l-0.49,0.05l0.21,1.93l0.51-0.06c0.4-0.04,0.7-0.15,0.91-0.32C121.02,103.1,121.11,102.83,121.07,102.47
		L121.07,102.47z M121.89,105.9c-0.04-0.33-0.18-0.58-0.43-0.73s-0.6-0.21-1.05-0.16l-0.86,0.09l0.22,2.05l0.86-0.09
		c0.44-0.05,0.77-0.17,0.99-0.36S121.93,106.24,121.89,105.9z"></path>
	<path class="st1" d="M127.14,101.1l0.18,1.61l2.87-0.31l0.19,1.69l-2.87,0.31l0.18,1.66l3.58-0.39l0.19,1.69l-5.8,0.63l-0.91-8.33
		l5.08-0.56l0.19,1.69l-2.87,0.31L127.14,101.1z"></path>
	<path class="st1" d="M134.52,104.03l0.32,2.95l-2.21,0.24l-0.91-8.33l3.44-0.38c1-0.11,1.82,0.01,2.46,0.37s1.01,1.02,1.12,1.99
		c0.09,0.83-0.02,1.45-0.35,1.85c-0.32,0.4-0.7,0.67-1.14,0.79l0.02,0.17l2.18,2.63l0.02,0.17l-2.43,0.27l-2.08-2.76L134.52,104.03
		L134.52,104.03z M136.52,101.11c-0.08-0.71-0.55-1.02-1.43-0.93l-0.99,0.11l0.23,2.09l0.98-0.11c0.41-0.04,0.72-0.15,0.94-0.33
		c0.22-0.17,0.31-0.45,0.27-0.84V101.11z"></path>
	<path class="st1" d="M145.98,104.77c-0.21,0.36-0.47,0.66-0.78,0.89c-0.31,0.23-0.78,0.39-1.42,0.46c-0.71,0.08-1.35-0.04-1.9-0.35
		c-0.55-0.31-1-0.78-1.34-1.4s-0.56-1.36-0.65-2.21c-0.14-1.32,0.07-2.4,0.63-3.24c0.57-0.84,1.49-1.33,2.75-1.47
		c0.94-0.1,1.76,0.04,2.45,0.44c0.69,0.39,1.18,1.01,1.47,1.86l-2.23,0.24c-0.29-0.67-0.8-0.97-1.52-0.89
		c-1.09,0.12-1.54,1.06-1.34,2.82c0.1,0.87,0.3,1.52,0.61,1.95s0.78,0.61,1.4,0.54c0.41-0.04,0.74-0.24,0.99-0.57
		s0.34-0.79,0.27-1.35l-1.37,0.15l-0.15-1.41l3.52-0.39l0.52,4.7l-1.64,0.18l-0.11-0.98l-0.17,0.02L145.98,104.77z"></path>
</g>
</svg></svg></g></g><defs><clipPath id="SvgjsClipPath1151"><rect width="1000" height="1000" x="0" y="0" rx="0" ry="0"></rect></clipPath></defs></svg>