<?xml version="1.0" encoding="UTF-8"?>
<svg id="Laag_1" data-name="Laag 1" xmlns="http://www.w3.org/2000/svg" viewBox="0 0 88.27 63.66">
  <defs>
    <style>
      .cls-1 {
        fill: #22395b;
      }
    </style>
  </defs>
  <path class="cls-1" d="m48.53,34.32l-.04.03c-.83.6-1.57,1.08-2.29,1.41-.71.34-1.43.53-2.15.53s-1.41-.19-2.11-.53c-.7-.34-1.41-.82-2.19-1.43l-.02-.02-.34-.29-16.47,14.4h42.45s-16.48-14.4-16.48-14.4l-.36.31Zm-5.8-2.11c.5.23.92.32,1.32.32s.85-.1,1.39-.34c.53-.24,1.17-.62,1.93-1.13l18.88-15.52c-.24-.17-.53-.28-.85-.28H22.85c-.31.02-.59.12-.85.29l18.92,15.53c.71.52,1.3.9,1.81,1.13m-21.54-13.54c-.01.1-.03.21-.03.32v26.56s14.68-13.46,14.68-13.46l-14.65-13.42Zm45.93,26.97c0,.11-.01.22-.03.32l-14.65-13.42,14.67-13.46v26.56Z"/>
</svg>